<?xml version="1.0" encoding="UTF-8"?>
<!-- Generator: visioncortex VTracer 0.6.3 -->
<svg version="1.1" xmlns="http://www.w3.org/2000/svg" width="1280" height="1280">
<path d="M0 0 C0.88 -0.03 1.75 -0.06 2.65 -0.09 C5.06 0.38 5.06 0.38 6.61 2.09 C11.07 9.11 11.61 18.2 12.19 26.31 C12.27 27.3 12.35 28.29 12.43 29.31 C12.94 35.89 13.28 42.47 13.56 49.06 C14.06 61.76 14.06 61.76 17.56 73.88 C21.56 83.2 21.54 94.06 22.12 104.06 C22.21 105.43 22.29 106.79 22.38 108.16 C22.9 116.66 23.27 125.17 23.56 133.69 C24.02 146.53 24.59 159.25 28.34 171.61 C32.08 185.83 32.14 201.37 32.48 215.98 C32.53 218.18 32.59 220.39 32.64 222.59 C32.81 228.85 32.96 235.11 33.11 241.37 C33.15 272.56 33.15 272.56 37.56 303.25 C42.62 324.52 41.6 347.61 42.06 369.38 C42.09 370.72 42.09 370.72 42.12 372.09 C43.15 419.18 43.57 466.28 44.06 513.38 C44.72 513.38 45.38 513.38 46.06 513.38 C46.6 512.26 47.13 511.15 47.69 510 C49.41 506.93 49.9 506.44 53.31 504.94 C54.22 504.75 55.13 504.57 56.06 504.38 C56.16 503.04 56.16 503.04 56.25 501.69 C57.26 497.58 58.93 496.14 62.06 493.38 C64.11 491.49 65.39 489.87 66.94 487.5 C69.06 484.37 69.06 484.37 71.38 482.12 C74.51 478.92 76.8 475.44 79.22 471.68 C81.26 469.12 83.26 468.01 86.06 466.38 C87.69 464.54 87.69 464.54 89 462.5 C90.86 459.88 92.6 457.74 95.12 455.75 C98.24 453.23 100.51 450.45 103.06 447.38 C104.73 446.04 106.4 444.71 108.06 443.38 C108.89 442.38 109.71 441.39 110.56 440.38 C113.06 437.38 113.06 437.38 115.69 435.31 C118.18 433.51 118.18 433.51 119.5 430.88 C121.5 427.67 123.81 426.24 127.06 424.38 C127.72 424.38 128.38 424.38 129.06 424.38 C129.3 423.62 129.53 422.86 129.78 422.08 C131.3 418.88 132.65 417.94 135.62 416.06 C140.12 413.1 144.03 409.85 147.96 406.17 C150.06 404.37 150.06 404.37 152.67 402.83 C155.33 401.39 155.33 401.39 157.56 398.31 C160.06 395.38 160.06 395.38 162.62 394.38 C165.35 393.54 165.35 393.54 166.81 390.5 C169.49 386.78 171.62 385.98 175.84 384.53 C178.26 383.47 178.26 383.47 179.97 380.97 C182.38 377.98 184.63 376.68 188 374.88 C191.5 372.93 194 371.44 196.81 368.56 C199.23 366.21 200.07 365.99 203.25 365.38 C204.51 365.05 205.77 364.71 207.06 364.38 C207.37 363.58 207.68 362.79 208 361.98 C209.36 358.64 210.64 358.15 213.88 356.69 C215.15 356.09 215.15 356.09 216.46 355.49 C218.21 354.74 219.99 354.03 221.79 353.38 C224.27 352.53 224.27 352.53 225.62 350 C228.41 347 230.01 346.59 233.88 345.44 C237.85 344.25 240.6 343.29 243.56 340.38 C247.25 336.76 251.41 335.82 256.28 334.38 C258.93 333.42 260.19 332.66 262.12 330.69 C266.42 327.31 270.68 326.82 276.06 327.38 C279.31 329.5 279.31 329.5 281.06 332.38 C281.06 336.19 279.63 338.61 277.06 341.38 C276.4 341.38 275.74 341.38 275.06 341.38 C274.95 341.96 274.84 342.54 274.73 343.13 C272.38 354.71 272.38 354.71 267.62 358.12 C264.86 360.55 264.35 361.82 263.12 365.19 C261.56 369.52 259.71 372.2 256.57 375.52 C254.78 377.73 253.7 379.98 252.5 382.56 C250.56 386.7 248.64 388.53 245.06 391.38 C243.97 393.57 243.07 395.81 242.15 398.09 C240.74 401.04 238.85 403.1 236.64 405.48 C234.78 407.71 233.43 410.05 232 412.56 C229.76 416.45 227.59 418.59 224.06 421.38 C223.35 422.7 222.68 424.06 222.06 425.44 C220.35 429.21 220.35 429.21 217.56 430.81 C214.14 432.95 213.54 435.49 212.25 439.22 C211.06 441.38 211.06 441.38 208.62 442.82 C205.47 444.74 204.69 446.44 203.12 449.75 C200.03 455.8 200.03 455.8 197 458.06 C194.22 460.25 193.2 461.58 191.5 464.56 C189.44 468.13 187.98 469 184.06 470.38 C182.94 472.72 182.94 472.72 182.06 475.38 C178.81 480.03 178.81 480.03 176 481.31 C173.76 482.29 173.76 482.29 172.75 485.19 C170.82 488.84 169.06 489.91 165.69 492.09 C163.76 493.43 163.76 493.43 162.5 496.5 C161.06 499.38 161.06 499.38 158.19 500.75 C154.83 502.5 154.33 503.27 152.56 506.44 C150.74 509.68 150.32 510.26 146.75 511.88 C145.86 512.04 144.98 512.2 144.06 512.38 C143.94 513.49 143.94 513.49 143.81 514.62 C142.89 517.99 141.8 519.25 139.06 521.38 C136.31 522.12 136.31 522.12 134.06 522.38 C133.79 523.3 133.53 524.23 133.25 525.19 C131.61 529.58 131.61 529.58 129.06 531.38 C126.38 532.06 126.38 532.06 124.06 532.38 C123.82 533.3 123.57 534.23 123.31 535.19 C121.96 538.62 121.17 539.55 118.06 541.38 C117.4 541.64 116.74 541.91 116.06 542.19 C113.78 543.34 113.78 543.34 112.25 546.25 C110.19 549.2 109.49 549.9 106.5 551.44 C102.81 553.52 102.07 554.81 100.06 558.38 C98.4 559.38 96.73 560.38 95.06 561.38 C95.06 562.37 95.06 563.36 95.06 564.38 C96.07 564.39 97.07 564.4 98.1 564.41 C227.19 565.74 227.19 565.74 264.2 567.13 C266.22 567.21 268.24 567.28 270.26 567.35 C284.53 567.85 298.37 569.46 312.43 571.98 C324.83 574.18 337.37 574.5 349.94 574.79 C352.14 574.84 354.35 574.9 356.55 574.96 C362.81 575.12 369.06 575.28 375.32 575.42 C425.48 576.63 425.48 576.63 447.31 582.5 C455.55 584.42 464.14 584.53 472.57 584.84 C474.54 584.92 476.52 585 478.5 585.08 C481.55 585.19 484.6 585.31 487.66 585.42 C497.85 585.81 508.02 586.23 518.17 587.35 C518.89 587.43 519.61 587.5 520.35 587.59 C525.82 588.24 530.91 589.46 536.06 591.38 C543.24 593.96 550.36 594.48 557.94 594.8 C559.43 594.88 560.93 594.95 562.43 595.03 C564.73 595.14 567.04 595.25 569.34 595.35 C601.46 596.77 601.46 596.77 608.06 603.38 C608.37 605.52 608.37 605.52 608.5 608.19 C608.56 609.06 608.62 609.93 608.68 610.83 C608.06 613.38 608.06 613.38 605.48 615.43 C594.88 621.47 580.31 620.95 568.38 621.44 C549.83 621.95 549.83 621.95 532.04 626.65 C523.36 629.81 513.62 629.91 504.5 630.44 C503.13 630.52 501.77 630.61 500.4 630.69 C491.67 631.22 482.93 631.59 474.19 631.88 C461.45 632.31 449.06 632.98 436.79 636.65 C422.48 640.46 407.02 640.45 392.32 640.79 C390.12 640.84 387.91 640.9 385.71 640.96 C379.45 641.12 373.19 641.28 366.94 641.42 C336.17 641.64 336.17 641.64 305.81 645.88 C284.84 650.45 262.45 649.89 241.06 650.38 C239.77 650.4 239.77 650.4 238.46 650.43 C190.67 651.5 142.86 651.88 95.06 652.38 C95.06 653.03 95.06 653.7 95.06 654.38 C95.97 654.75 96.88 655.12 97.81 655.5 C101.06 657.37 101.06 657.37 102.94 660.31 C105.42 663.9 107.39 664.67 111.25 666.38 C113.82 667.79 114.6 669.88 116.06 672.38 C118 673.78 120.01 674.98 122.07 676.19 C125.69 678.34 128.63 680.94 131.56 683.94 C133.92 686.45 133.92 686.45 136.75 687.88 C139.61 689.73 139.87 691.27 141.06 694.38 C142.86 695.44 142.86 695.44 145.06 696.38 C149.04 699.44 151.92 702.45 155.06 706.38 C156.05 707.2 157.04 708.02 158.06 708.88 C161.06 711.37 161.06 711.37 163.12 714 C164.92 716.49 164.92 716.49 167.56 717.81 C170.06 719.38 170.06 719.38 172 722.31 C173.89 725.53 173.89 725.53 177.06 727.38 C180.47 729.64 182.06 731.84 184.06 735.38 C184.06 736.03 184.06 736.7 184.06 737.38 C184.83 737.62 185.59 737.86 186.38 738.11 C189.49 739.58 190.33 740.76 192.06 743.69 C194.39 747.42 196.85 750.33 200.06 753.38 C203.78 757.72 203.78 757.72 205 760.5 C205.97 762.6 205.97 762.6 208.44 763.62 C211.27 765.51 211.68 766.32 213 769.31 C214.45 772.56 214.92 773.28 218.06 775.31 C221.77 777.86 222.5 780.09 223.91 784.25 C224.94 786.58 224.94 786.58 227.5 787.82 C230.63 789.72 231.43 791.36 233 794.62 C235.18 798.89 237.46 802.19 240.69 805.69 C242.65 808.1 243.78 810.76 245.07 813.55 C246.07 815.62 246.07 815.62 248.44 817.62 C251.83 821.18 253.49 825.1 255.58 829.52 C256.82 831.91 257.93 833.61 259.75 835.56 C261.96 838.25 262.57 839.59 263.5 842.81 C264.49 846.19 265.52 848.13 268 850.62 C271.78 854.6 272.65 859.18 274.05 864.37 C275 867.19 275.68 868.47 277.75 870.5 C281.16 874.74 281.62 879.02 281.06 884.38 C278.94 887.62 278.94 887.62 276.06 889.38 C273.56 889.5 273.56 889.5 271.06 888.38 C270.07 887.23 270.07 887.23 269.06 886.06 C266.38 883.05 263.39 882.46 259.56 881.44 C252.54 879.5 252.54 879.5 250.38 876.38 C247.47 872.61 244.91 871.99 240.54 870.43 C237.39 869.09 235.38 867.21 232.92 864.88 C230.71 863.09 228.45 862.01 225.88 860.81 C221.73 858.87 219.91 856.96 217.06 853.38 C214.94 852.3 214.94 852.3 212.56 851.38 C209.46 850.12 208.25 849.61 206.12 846.94 C203.41 843.56 200.34 842.44 196.46 840.63 C193.4 839.03 191.36 836.94 189.06 834.38 C186.74 832.43 184.79 831.25 182 830 C179.06 828.38 179.06 828.38 177.75 825.94 C175.5 822.51 173.01 821.88 169.22 820.56 C167.06 819.38 167.06 819.38 165.62 816.93 C163.7 813.78 161.99 813 158.69 811.44 C152.64 808.35 152.64 808.35 150.38 805.31 C148.2 802.55 146.88 801.52 143.94 799.81 C140.39 797.75 139.18 795.9 137.06 792.38 C135.07 791.02 133 789.84 130.91 788.63 C128.48 786.98 127.52 784.9 126.06 782.38 C124.64 781.69 124.64 781.69 123.19 781 C119.56 779.12 118.51 777.33 116.35 774 C115.01 772.07 115.01 772.07 111.94 770.81 C109.06 769.38 109.06 769.38 107.69 766.5 C105.7 762.67 103.61 761.56 99.9 759.55 C98.06 758.38 98.06 758.38 96.06 755.38 C96.06 754.38 96.06 753.39 96.06 752.38 C94.98 752.31 94.98 752.31 93.88 752.25 C89.75 750.97 88.53 748.89 86.06 745.38 C86.06 744.38 86.06 743.39 86.06 742.38 C85.18 742.21 84.29 742.04 83.38 741.88 C79.25 740.01 78.48 738.08 76.35 734.26 C74.5 731.55 71.96 730.79 69.06 729.38 C68.05 727.63 67.03 725.87 66.12 724.07 C65.02 722.05 65.02 722.05 62.06 720.38 C59.14 718.43 58.51 717.75 57 714.81 C54.91 711.1 53.63 710.43 50.06 708.38 C47.75 705.19 47.75 705.19 46.06 702.38 C45.4 702.71 44.74 703.03 44.06 703.38 C44.05 704.35 44.04 705.33 44.03 706.34 C42.99 804.92 42.99 804.92 42.06 847.38 C42.04 848.23 42.03 849.09 42.01 849.98 C40.99 897.47 40.99 897.47 36.47 920.15 C34.1 932.35 33.94 944.83 33.65 957.22 C33.6 959.42 33.54 961.62 33.48 963.82 C33.32 970.07 33.16 976.31 33.01 982.56 C31.82 1032.09 31.82 1032.09 27.5 1048.06 C23.45 1063.56 23.62 1079.53 23.01 1095.45 C22.63 1105.47 22.19 1115.45 21.09 1125.41 C21.01 1126.13 20.93 1126.85 20.85 1127.59 C20.03 1134.54 18.26 1140.99 15.94 1147.56 C14.04 1153.66 13.9 1160.15 13.63 1166.5 C13.56 1168.05 13.48 1169.6 13.41 1171.14 C13.3 1173.53 13.19 1175.92 13.09 1178.3 C11.75 1209.69 11.75 1209.69 5.06 1216.38 C2.88 1216.61 2.88 1216.61 0.19 1216.69 C-0.7 1216.72 -1.58 1216.76 -2.49 1216.8 C-4.94 1216.38 -4.94 1216.38 -6.49 1214.67 C-10.85 1207.77 -11.44 1198.9 -12 1190.94 C-12.08 1189.97 -12.16 1189 -12.24 1188 C-12.68 1182.41 -13.03 1176.82 -13.33 1171.22 C-13.98 1159.67 -14.69 1149.2 -18.7 1138.32 C-20.03 1134.38 -20.62 1130.45 -21.03 1126.32 C-21.11 1125.55 -21.19 1124.78 -21.28 1123.99 C-22.36 1113.01 -22.65 1101.99 -23.04 1090.97 C-23.41 1081.06 -23.82 1071.19 -24.91 1061.32 C-24.99 1060.6 -25.06 1059.88 -25.15 1059.13 C-25.72 1054.29 -26.8 1049.79 -28.21 1045.14 C-31.95 1030.92 -32.01 1015.38 -32.35 1000.77 C-32.4 998.57 -32.46 996.36 -32.52 994.16 C-32.68 987.9 -32.84 981.64 -32.99 975.38 C-33.05 944.16 -33.05 944.16 -37.44 913.44 C-42.41 892.47 -41.48 869.83 -41.94 848.38 C-41.97 847.04 -41.97 847.04 -42 845.67 C-43.03 798.24 -43.44 750.81 -43.94 703.38 C-44.6 703.38 -45.26 703.38 -45.94 703.38 C-46.74 705.05 -46.74 705.05 -47.56 706.75 C-49.29 709.82 -49.78 710.31 -53.19 711.81 C-54.1 712 -55 712.18 -55.94 712.38 C-56 713.26 -56.06 714.15 -56.12 715.06 C-57.13 719.17 -58.8 720.61 -61.94 723.38 C-63.98 725.26 -65.27 726.88 -66.81 729.25 C-68.94 732.38 -68.94 732.38 -71.25 734.62 C-74.38 737.83 -76.67 741.31 -79.09 745.07 C-81.14 747.63 -83.13 748.74 -85.94 750.38 C-87.56 752.21 -87.56 752.21 -88.88 754.25 C-90.74 756.87 -92.48 759.01 -95 761 C-98.12 763.52 -100.38 766.3 -102.94 769.38 C-103.8 770.06 -104.67 770.74 -105.56 771.44 C-108.06 773.24 -108.06 773.24 -109.38 775.88 C-110.94 778.37 -110.94 778.37 -113.88 780.31 C-117.09 782.2 -117.09 782.2 -118.94 785.38 C-121.21 788.78 -123.4 790.38 -126.94 792.38 C-127.6 792.38 -128.26 792.38 -128.94 792.38 C-129.17 793.13 -129.4 793.88 -129.64 794.66 C-131.2 797.93 -132.71 798.94 -135.75 800.88 C-138.68 802.81 -141.07 804.51 -143.56 807 C-145.7 809.14 -147.42 810.32 -150 811.81 C-153.01 813.59 -153.99 814.46 -156 817.5 C-158.47 821.17 -160.93 821.66 -164.94 823.38 C-165.56 824.37 -166.18 825.36 -166.81 826.38 C-169.51 830.19 -171.62 830.4 -175.96 831.6 C-178.21 832.23 -178.21 832.23 -179.19 834.88 C-179.44 835.7 -179.68 836.52 -179.94 837.38 C-182.06 838.88 -182.06 838.88 -184.94 840.38 C-188.86 842.65 -192.31 844.68 -195.38 848.06 C-198.52 850.9 -200.83 851.18 -204.95 851.62 C-205.61 851.87 -206.26 852.12 -206.94 852.38 C-207.61 854.04 -208.28 855.71 -208.94 857.38 C-211.14 858.89 -211.14 858.89 -213.75 860.06 C-214.6 860.46 -215.45 860.85 -216.33 861.26 C-218.09 862.01 -219.87 862.71 -221.66 863.37 C-224.14 864.23 -224.14 864.23 -225.56 866.75 C-228.72 870.24 -231.93 870.9 -236.33 872.34 C-239.68 873.67 -241.48 875.78 -243.94 878.38 C-246.52 879.64 -249.2 880.5 -251.94 881.38 C-257.52 883.17 -257.52 883.17 -262.25 886.5 C-266.46 889.43 -270.88 889.82 -275.94 889.38 C-279.19 887.25 -279.19 887.25 -280.94 884.38 C-281.06 881.88 -281.06 881.88 -279.94 879.38 C-279.17 878.72 -278.41 878.05 -277.62 877.38 C-274.62 874.69 -273.99 871.69 -272.94 867.88 C-271.45 862.54 -270.32 859.72 -265.94 856.38 C-263.63 854.36 -263.63 854.36 -262.69 850.69 C-261.58 847.58 -260.38 845.52 -258.12 843.12 C-254.5 839.24 -252.57 834.77 -250.43 829.95 C-248.77 827.08 -247.82 826.74 -244.94 825.38 C-243.76 823.19 -243 820.99 -242.16 818.66 C-240.94 816.37 -240.94 816.37 -238.5 814.46 C-235.49 812.01 -234.49 809.9 -232.94 806.38 C-230.88 801.7 -228.96 799.47 -224.94 796.38 C-223.71 794.42 -223.71 794.42 -222.94 792.38 C-221.24 788.68 -219.44 786.59 -215.94 784.38 C-215.28 784.38 -214.62 784.38 -213.94 784.38 C-213.92 783.51 -213.9 782.64 -213.88 781.75 C-212.87 778.13 -212.55 777.8 -209.75 775.69 C-206.41 773.11 -204.78 770.57 -202.88 766.81 C-201.19 763.48 -199.88 760.94 -196.88 758.69 C-194.11 756.51 -193.08 755.2 -191.38 752.25 C-189.31 748.7 -187.46 747.49 -183.94 745.38 C-182.58 743.38 -181.4 741.31 -180.2 739.23 C-178.54 736.79 -176.46 735.84 -173.94 734.38 C-172.87 732.41 -171.87 730.41 -170.94 728.38 C-169.33 726.41 -168.29 725.52 -165.94 724.56 C-163.64 723.44 -163.64 723.44 -162.5 720.44 C-160.74 716.98 -159.41 715.98 -155.94 714.38 C-155.28 714.38 -154.62 714.38 -153.94 714.38 C-153.71 713.47 -153.48 712.56 -153.25 711.62 C-151.74 707.88 -150.31 706.52 -146.94 704.38 C-145.95 704.38 -144.96 704.38 -143.94 704.38 C-143.86 703.63 -143.77 702.89 -143.69 702.12 C-142.77 698.76 -141.68 697.5 -138.94 695.38 C-136.19 694.62 -136.19 694.62 -133.94 694.38 C-133.84 693.26 -133.84 693.26 -133.75 692.12 C-132.68 688.49 -131.04 687.47 -127.94 685.38 C-127.24 685.09 -126.54 684.8 -125.81 684.5 C-123.64 683.44 -123.64 683.44 -122.62 680.5 C-120.75 677.02 -119.09 676.17 -115.63 674.44 C-113.61 673.33 -113.61 673.33 -111.94 670.38 C-109.99 667.46 -109.37 666.86 -106.44 665.38 C-102.67 663.46 -101.21 660.93 -98.94 657.38 C-96.19 655.5 -96.19 655.5 -93.94 654.38 C-94.27 653.72 -94.6 653.05 -94.94 652.38 C-95.94 652.36 -96.94 652.35 -97.98 652.34 C-226.51 651.02 -226.51 651.02 -264.56 649.62 C-266.63 649.54 -268.71 649.47 -270.78 649.4 C-283.7 648.96 -296.22 647.71 -308.94 645.38 C-322.52 642.9 -336.03 642.28 -349.81 641.96 C-352.02 641.91 -354.22 641.85 -356.43 641.79 C-362.68 641.63 -368.94 641.47 -375.19 641.33 C-425.36 640.12 -425.36 640.12 -447.19 634.25 C-455.43 632.33 -464.01 632.22 -472.44 631.91 C-474.42 631.83 -476.4 631.75 -478.38 631.67 C-481.43 631.56 -484.48 631.44 -487.53 631.33 C-497.73 630.94 -507.89 630.52 -518.04 629.4 C-518.76 629.32 -519.48 629.25 -520.22 629.16 C-526.74 628.39 -532.58 626.61 -538.7 624.36 C-541.86 623.4 -544.55 623.01 -547.84 622.81 C-548.97 622.74 -550.09 622.67 -551.25 622.59 C-553.05 622.48 -553.05 622.48 -554.88 622.38 C-557.39 622.21 -559.91 622.04 -562.43 621.87 C-563.69 621.79 -564.95 621.71 -566.25 621.62 C-571.67 621.26 -577.08 620.87 -582.5 620.44 C-583.84 620.34 -583.84 620.34 -585.21 620.25 C-592.99 619.61 -601.93 618.78 -607.94 613.38 C-608.54 611.04 -608.54 611.04 -608.56 608.44 C-608.6 607.58 -608.63 606.73 -608.66 605.85 C-607.56 602.09 -605.27 601.28 -601.94 599.38 C-591.01 596.19 -579.55 595.77 -568.25 595.31 C-549.7 594.8 -549.7 594.8 -531.92 590.1 C-523.24 586.94 -513.49 586.84 -504.38 586.31 C-503.01 586.23 -501.64 586.14 -500.28 586.06 C-491.54 585.53 -482.81 585.16 -474.06 584.88 C-455.51 584.26 -455.51 584.26 -437.51 580.1 C-423.14 576.04 -407.01 576.3 -392.2 575.96 C-389.99 575.91 -387.79 575.85 -385.58 575.79 C-379.33 575.63 -373.07 575.47 -366.81 575.33 C-333.78 574.87 -333.78 574.87 -301.19 570.06 C-294.3 568.61 -287.42 568.17 -280.41 567.88 C-279.02 567.81 -279.02 567.81 -277.61 567.75 C-274.56 567.62 -271.5 567.5 -268.44 567.38 C-267.36 567.33 -266.28 567.29 -265.17 567.24 C-208.47 564.99 -151.67 564.96 -94.94 564.38 C-94.94 563.72 -94.94 563.05 -94.94 562.38 C-96.05 561.84 -97.16 561.3 -98.31 560.75 C-101.38 559.03 -101.87 558.53 -103.38 555.12 C-103.56 554.22 -103.75 553.31 -103.94 552.38 C-105.27 552.28 -105.27 552.28 -106.62 552.19 C-110.73 551.18 -112.18 549.51 -114.94 546.38 C-116.72 544.43 -118.25 543.18 -120.5 541.75 C-124.56 539.14 -127.96 535.79 -131.47 532.5 C-133.86 530.32 -133.86 530.32 -136.59 528.82 C-139 527.34 -139.98 526.25 -141.44 523.88 C-143.56 520.68 -145.61 519.3 -148.94 517.38 C-149.37 516.61 -149.8 515.85 -150.25 515.06 C-152.33 511.75 -154.8 510.16 -157.95 507.91 C-159.79 506.49 -161.13 505.13 -162.56 503.31 C-165.08 500.19 -167.86 497.93 -170.94 495.38 C-171.62 494.51 -172.3 493.64 -173 492.75 C-174.8 490.26 -174.8 490.26 -177.44 488.94 C-180.64 486.93 -182.07 484.63 -183.94 481.38 C-183.94 480.71 -183.94 480.06 -183.94 479.38 C-184.68 479.15 -185.43 478.93 -186.2 478.7 C-189.58 477.07 -190.73 475.35 -192.81 472.25 C-195.81 467.91 -198.93 464.01 -202.59 460.23 C-204.22 457.99 -204.41 456.06 -204.94 453.38 C-207.31 452.19 -207.31 452.19 -209.94 451.38 C-212.3 449.56 -213.05 448.14 -214.31 445.38 C-215.66 442.24 -215.66 442.24 -218.38 441.06 C-221.8 438.81 -222.44 436.32 -223.75 432.53 C-224.81 430.17 -224.81 430.17 -227.38 428.92 C-230.5 427.03 -231.3 425.39 -232.88 422.12 C-235.05 417.86 -237.34 414.56 -240.57 411.06 C-242.52 408.65 -243.66 406 -244.95 403.2 C-245.95 401.12 -245.95 401.12 -248.38 399.12 C-251.71 395.55 -252.92 391.78 -254.53 387.21 C-256.17 383.91 -258.09 382.64 -260.94 380.38 C-262.09 377.82 -262.09 377.82 -262.88 375.06 C-264.1 371.31 -265.15 368.79 -267.94 366 C-271.7 362.1 -272.53 357.53 -273.93 352.41 C-275.25 348.43 -277.08 346.38 -279.94 343.38 C-280.75 341.5 -280.75 341.5 -280.94 339.38 C-281.03 338.44 -281.03 338.44 -281.12 337.49 C-281.34 333.91 -281.28 331.93 -279.38 328.81 C-276.94 327.38 -276.94 327.38 -273.5 327.31 C-269.94 328.38 -269.94 328.38 -267.81 330.69 C-264.59 333.7 -262.7 334.15 -258.5 335.25 C-253 336.76 -250.57 338.19 -247.32 342.78 C-245.25 345.17 -242.89 345.66 -239.93 346.57 C-237.68 347.48 -236.38 348.59 -234.62 350.25 C-230.99 353.64 -226.99 355.29 -222.39 357.1 C-219.67 358.51 -218.49 359.76 -216.94 362.38 C-216.94 363.04 -216.94 363.69 -216.94 364.38 C-215.76 364.56 -214.59 364.75 -213.38 364.94 C-209.8 365.81 -208.07 366.96 -205.62 369.69 C-202.09 373.62 -198.28 375.26 -193.39 377.14 C-190.65 378.52 -189.49 379.75 -187.94 382.38 C-187.94 383.04 -187.94 383.69 -187.94 384.38 C-186.36 384.68 -186.36 384.68 -184.75 385 C-180.27 386.26 -178.53 388.6 -175.94 392.38 C-175.94 393.04 -175.94 393.69 -175.94 394.38 C-174.61 394.47 -174.61 394.47 -173.25 394.56 C-169.14 395.57 -167.7 397.24 -164.94 400.38 C-162.58 403 -160.08 404.54 -157 406.25 C-153.03 408.57 -150.74 410.73 -147.94 414.38 C-146.65 415.23 -145.33 416.04 -144 416.81 C-141.21 418.45 -139.28 419.93 -137.31 422.5 C-135.13 425.55 -135.13 425.55 -131.81 426.88 C-128.16 428.78 -127.74 430.76 -125.94 434.38 C-122.99 436.1 -122.99 436.1 -119.94 437.38 C-117.98 438.99 -117.08 440.02 -116.12 442.38 C-115.01 444.67 -115.01 444.67 -112 445.81 C-108.55 447.57 -107.54 448.9 -105.94 452.38 C-105.94 453.04 -105.94 453.69 -105.94 454.38 C-105.01 454.64 -104.08 454.91 -103.12 455.19 C-100.1 456.31 -98.85 456.89 -96.94 459.38 C-96.69 460.01 -96.44 460.65 -96.19 461.31 C-94.77 463.65 -93.81 464.12 -91.44 465.38 C-89.08 466.62 -88.05 467.21 -86.5 469.44 C-85.94 471.37 -85.94 471.37 -85.94 474.38 C-85.2 474.46 -84.45 474.54 -83.69 474.62 C-80.32 475.54 -79.11 476.68 -76.94 479.38 C-76.65 480.22 -76.36 481.07 -76.06 481.94 C-75.12 484.66 -75.12 484.66 -72.06 485.75 C-68.55 487.58 -67.74 489.21 -66 492.68 C-64.31 495.38 -61.56 496.64 -58.94 498.38 C-57.94 500.38 -56.94 502.38 -55.94 504.38 C-53.96 505.74 -51.96 507.07 -49.94 508.38 C-48.92 510.03 -47.92 511.7 -46.94 513.38 C-45.95 513.38 -44.96 513.38 -43.94 513.38 C-43.93 512.38 -43.92 511.39 -43.91 510.37 C-42.87 410.79 -42.87 410.79 -41.94 368.38 C-41.92 367.52 -41.9 366.67 -41.88 365.79 C-40.81 316.05 -40.81 316.05 -36.7 299.25 C-35.77 294.54 -35.3 289.88 -34.91 285.11 C-34.82 284.07 -34.74 283.04 -34.65 281.98 C-33.44 266.2 -33.25 250.36 -32.89 234.54 C-31.71 183.71 -31.71 183.71 -27.38 167.69 C-23.32 152.19 -23.49 136.22 -22.89 120.3 C-22.5 110.27 -22.06 100.28 -20.96 90.3 C-20.89 89.58 -20.81 88.86 -20.73 88.12 C-19.95 81.59 -18.17 75.74 -15.92 69.61 C-14.96 66.45 -14.58 63.76 -14.38 60.47 C-14.3 59.35 -14.23 58.22 -14.15 57.06 C-14.05 55.27 -14.05 55.27 -13.94 53.44 C-13.77 50.92 -13.6 48.4 -13.43 45.88 C-13.19 42.26 -12.95 38.64 -12.72 35.03 C-10.38 0.15 -10.38 0.15 0 0 Z " fill="#000000" transform="translate(639.9375,31.625)"/>
</svg>
